<svg xmlns="http://www.w3.org/2000/svg" width="400" height="500" viewBox="0 0 400 500" role="img" aria-label="Hanamichi Sakuragi poster art">
  <rect width="400" height="500" fill="#000000"/>
  <polygon points="260,0 400,0 400,250 180,500 40,500" fill="#DA291C" opacity="0.9"/>
  <circle cx="120" cy="150" r="80" fill="none" stroke="#E87121" stroke-width="6" opacity="0.5"/>
  <path d="M120 130 L120 170 M100 150 L140 150" stroke="#E87121" stroke-width="4" opacity="0.7"/>
  <path d="M85 330 C95 265 130 215 180 205 C230 195 260 245 275 310 L250 310 C239 265 220 235 185 240 C150 245 124 280 111 330 Z" fill="#1A1A1A"/>
  <rect x="0" y="360" width="400" height="140" fill="#121212"/>
  <text x="28" y="390" font-family="Arial, Helvetica, sans-serif" font-size="12" fill="#E87121" letter-spacing="2">THE FIRST SLAM DUNK STYLE</text>
  <text x="28" y="430" font-family="Arial, Helvetica, sans-serif" font-size="32" font-weight="700" fill="#FFFFFF">HANAMICHI</text>
  <text x="28" y="462" font-family="Arial, Helvetica, sans-serif" font-size="32" font-weight="700" fill="#FFFFFF">SAKURAGI</text>
  <text x="330" y="466" text-anchor="end" font-family="Arial, Helvetica, sans-serif" font-size="72" font-weight="700" fill="#E87121">10</text>
</svg>
